{"asset":{"version":"2.0","generator":"THREE.GLTFExporter r181"},"scenes":[{"name":"classroom-door-asset","nodes":[0]}],"scene":0,"nodes":[{"name":"classroom-door-root","children":[1,2,3,4,5,6,7,8,9,10,11,12,13,14,15,16,17,18,19,20,21]},{"translation":[0,2.29,0],"name":"outer-frame-top","mesh":0},{"translation":[-0.61,1.17,0],"name":"outer-frame-left","mesh":1},{"translation":[0.61,1.17,0],"name":"outer-frame-right","mesh":2},{"translation":[0,0.04,0],"name":"outer-frame-bottom","mesh":3},{"translation":[0,1.14,0.035],"name":"door-slab","mesh":4},{"translation":[0,1.72,0.064],"name":"upper-panel-recess","mesh":5},{"translation":[0,1.72,0.074],"name":"upper-panel","mesh":6},{"translation":[0,0.7,0.064],"name":"lower-panel-recess","mesh":7},{"translation":[0,0.7,0.074],"name":"lower-panel","mesh":8},{"translation":[0.22,1.58,0.084],"name":"window-recess","mesh":9},{"translation":[0.22,1.91,0.095],"name":"window-frame-top","mesh":10},{"translation":[0.22,1.25,0.095],"name":"window-frame-bottom","mesh":11},{"translation":[-0.02,1.58,0.095],"name":"window-frame-left","mesh":12},{"translation":[0.46,1.58,0.095],"name":"window-frame-right","mesh":13},{"translation":[0.22,1.58,0.108],"name":"wire-glass","mesh":14},{"translation":[0,0.28,0.095],"name":"kick-plate","mesh":15},{"translation":[0.43,1.05,0.112],"name":"latch-plate","mesh":16},{"rotation":[0,0,0.7071067811865475,0.7071067811865476],"translation":[0.35,1.05,0.12],"name":"lever-handle","mesh":17},{"translation":[-0.55,0.56,0.11],"name":"hinge-0","mesh":18},{"translation":[-0.55,1.2200000000000002,0.11],"name":"hinge-1","mesh":19},{"translation":[-0.55,1.8800000000000001,0.11],"name":"hinge-2","mesh":20}],"bufferViews":[{"buffer":0,"byteOffset":0,"byteLength":21168,"target":34962,"byteStride":12},{"buffer":0,"byteOffset":21168,"byteLength":21168,"target":34962,"byteStride":12},{"buffer":0,"byteOffset":42336,"byteLength":14112,"target":34962,"byteStride":8},{"buffer":0,"byteOffset":56448,"byteLength":21168,"target":34962,"byteStride":12},{"buffer":0,"byteOffset":77616,"byteLength":21168,"target":34962,"byteStride":12},{"buffer":0,"byteOffset":98784,"byteLength":14112,"target":34962,"byteStride":8},{"buffer":0,"byteOffset":112896,"byteLength":21168,"target":34962,"byteStride":12},{"buffer":0,"byteOffset":134064,"byteLength":21168,"target":34962,"byteStride":12},{"buffer":0,"byteOffset":155232,"byteLength":14112,"target":34962,"byteStride":8},{"buffer":0,"byteOffset":169344,"byteLength":21168,"target":34962,"byteStride":12},{"buffer":0,"byteOffset":190512,"byteLength":21168,"target":34962,"byteStride":12},{"buffer":0,"byteOffset":211680,"byteLength":14112,"target":34962,"byteStride":8},{"buffer":0,"byteOffset":225792,"byteLength":21168,"target":34962,"byteStride":12},{"buffer":0,"byteOffset":246960,"byteLength":21168,"target":34962,"byteStride":12},{"buffer":0,"byteOffset":268128,"byteLength":14112,"target":34962,"byteStride":8},{"buffer":0,"byteOffset":282240,"byteLength":21168,"target":34962,"byteStride":12},{"buffer":0,"byteOffset":303408,"byteLength":21168,"target":34962,"byteStride":12},{"buffer":0,"byteOffset":324576,"byteLength":14112,"target":34962,"byteStride":8},{"buffer":0,"byteOffset":338688,"byteLength":21168,"target":34962,"byteStride":12},{"buffer":0,"byteOffset":359856,"byteLength":21168,"target":34962,"byteStride":12},{"buffer":0,"byteOffset":381024,"byteLength":14112,"target":34962,"byteStride":8},{"buffer":0,"byteOffset":395136,"byteLength":21168,"target":34962,"byteStride":12},{"buffer":0,"byteOffset":416304,"byteLength":21168,"target":34962,"byteStride":12},{"buffer":0,"byteOffset":437472,"byteLength":14112,"target":34962,"byteStride":8},{"buffer":0,"byteOffset":451584,"byteLength":21168,"target":34962,"byteStride":12},{"buffer":0,"byteOffset":472752,"byteLength":21168,"target":34962,"byteStride":12},{"buffer":0,"byteOffset":493920,"byteLength":14112,"target":34962,"byteStride":8},{"buffer":0,"byteOffset":508032,"byteLength":21168,"target":34962,"byteStride":12},{"buffer":0,"byteOffset":529200,"byteLength":21168,"target":34962,"byteStride":12},{"buffer":0,"byteOffset":550368,"byteLength":14112,"target":34962,"byteStride":8},{"buffer":0,"byteOffset":564480,"byteLength":21168,"target":34962,"byteStride":12},{"buffer":0,"byteOffset":585648,"byteLength":21168,"target":34962,"byteStride":12},{"buffer":0,"byteOffset":606816,"byteLength":14112,"target":34962,"byteStride":8},{"buffer":0,"byteOffset":620928,"byteLength":21168,"target":34962,"byteStride":12},{"buffer":0,"byteOffset":642096,"byteLength":21168,"target":34962,"byteStride":12},{"buffer":0,"byteOffset":663264,"byteLength":14112,"target":34962,"byteStride":8},{"buffer":0,"byteOffset":677376,"byteLength":21168,"target":34962,"byteStride":12},{"buffer":0,"byteOffset":698544,"byteLength":21168,"target":34962,"byteStride":12},{"buffer":0,"byteOffset":719712,"byteLength":14112,"target":34962,"byteStride":8},{"buffer":0,"byteOffset":733824,"byteLength":21168,"target":34962,"byteStride":12},{"buffer":0,"byteOffset":754992,"byteLength":21168,"target":34962,"byteStride":12},{"buffer":0,"byteOffset":776160,"byteLength":14112,"target":34962,"byteStride":8},{"buffer":0,"byteOffset":790272,"byteLength":21168,"target":34962,"byteStride":12},{"buffer":0,"byteOffset":811440,"byteLength":21168,"target":34962,"byteStride":12},{"buffer":0,"byteOffset":832608,"byteLength":14112,"target":34962,"byteStride":8},{"buffer":0,"byteOffset":846720,"byteLength":21168,"target":34962,"byteStride":12},{"buffer":0,"byteOffset":867888,"byteLength":21168,"target":34962,"byteStride":12},{"buffer":0,"byteOffset":889056,"byteLength":14112,"target":34962,"byteStride":8},{"buffer":0,"byteOffset":903168,"byteLength":21168,"target":34962,"byteStride":12},{"buffer":0,"byteOffset":924336,"byteLength":21168,"target":34962,"byteStride":12},{"buffer":0,"byteOffset":945504,"byteLength":14112,"target":34962,"byteStride":8},{"buffer":0,"byteOffset":959616,"byteLength":1776,"target":34962,"byteStride":12},{"buffer":0,"byteOffset":961392,"byteLength":1776,"target":34962,"byteStride":12},{"buffer":0,"byteOffset":963168,"byteLength":1184,"target":34962,"byteStride":8},{"buffer":0,"byteOffset":964352,"byteLength":576,"target":34963},{"buffer":0,"byteOffset":964928,"byteLength":21168,"target":34962,"byteStride":12},{"buffer":0,"byteOffset":986096,"byteLength":21168,"target":34962,"byteStride":12},{"buffer":0,"byteOffset":1007264,"byteLength":14112,"target":34962,"byteStride":8},{"buffer":0,"byteOffset":1021376,"byteLength":21168,"target":34962,"byteStride":12},{"buffer":0,"byteOffset":1042544,"byteLength":21168,"target":34962,"byteStride":12},{"buffer":0,"byteOffset":1063712,"byteLength":14112,"target":34962,"byteStride":8},{"buffer":0,"byteOffset":1077824,"byteLength":21168,"target":34962,"byteStride":12},{"buffer":0,"byteOffset":1098992,"byteLength":21168,"target":34962,"byteStride":12},{"buffer":0,"byteOffset":1120160,"byteLength":14112,"target":34962,"byteStride":8}],"buffers":[{"byteLength":1134272,"uri":"data:application/octet-stream;base64,"}],"accessors":[{"bufferView":0,"componentType":5126,"count":1764,"max":[0.6700000166893005,0.06499999761581421,0.03999999910593033],"min":[-0.6700000166893005,-0.06499999761581421,-0.03999999910593033],"type":"VEC3"},{"bufferView":1,"componentType":5126,"count":1764,"max":[1,1,1],"min":[-1,-1,-1],"type":"VEC3"},{"bufferView":2,"componentType":5126,"count":1764,"max":[1,1],"min":[0,0],"type":"VEC2"},{"bufferView":3,"componentType":5126,"count":1764,"max":[0.06499999761581421,1.1699999570846558,0.03999999910593033],"min":[-0.06499999761581421,-1.1699999570846558,-0.03999999910593033],"type":"VEC3"},{"bufferView":4,"componentType":5126,"count":1764,"max":[1,1,1],"min":[-1,-1,-1],"type":"VEC3"},{"bufferView":5,"componentType":5126,"count":1764,"max":[1,1],"min":[0,0],"type":"VEC2"},{"bufferView":6,"componentType":5126,"count":1764,"max":[0.06499999761581421,1.1699999570846558,0.03999999910593033],"min":[-0.06499999761581421,-1.1699999570846558,-0.03999999910593033],"type":"VEC3"},{"bufferView":7,"componentType":5126,"count":1764,"max":[1,1,1],"min":[-1,-1,-1],"type":"VEC3"},{"bufferView":8,"componentType":5126,"count":1764,"max":[1,1],"min":[0,0],"type":"VEC2"},{"bufferView":9,"componentType":5126,"count":1764,"max":[0.6700000166893005,0.03999999910593033,0.029999999329447746],"min":[-0.6700000166893005,-0.03999999910593033,-0.029999999329447746],"type":"VEC3"},{"bufferView":10,"componentType":5126,"count":1764,"max":[1,1,1],"min":[-1,-1,-1],"type":"VEC3"},{"bufferView":11,"componentType":5126,"count":1764,"max":[1,1],"min":[0,0],"type":"VEC2"},{"bufferView":12,"componentType":5126,"count":1764,"max":[0.5199999809265137,1.0399999618530273,0.02250000089406967],"min":[-0.5199999809265137,-1.0399999618530273,-0.02250000089406967],"type":"VEC3"},{"bufferView":13,"componentType":5126,"count":1764,"max":[1,1,1],"min":[-1,-1,-1],"type":"VEC3"},{"bufferView":14,"componentType":5126,"count":1764,"max":[1,1],"min":[0,0],"type":"VEC2"},{"bufferView":15,"componentType":5126,"count":1764,"max":[0.3700000047683716,0.36000001430511475,0.006000000052154064],"min":[-0.3700000047683716,-0.36000001430511475,-0.006000000052154064],"type":"VEC3"},{"bufferView":16,"componentType":5126,"count":1764,"max":[1,1,1],"min":[-1,-1,-1],"type":"VEC3"},{"bufferView":17,"componentType":5126,"count":1764,"max":[1,1],"min":[0,0],"type":"VEC2"},{"bufferView":18,"componentType":5126,"count":1764,"max":[0.3400000035762787,0.33000001311302185,0.00800000037997961],"min":[-0.3400000035762787,-0.33000001311302185,-0.00800000037997961],"type":"VEC3"},{"bufferView":19,"componentType":5126,"count":1764,"max":[1,1,1],"min":[-1,-1,-1],"type":"VEC3"},{"bufferView":20,"componentType":5126,"count":1764,"max":[1,1],"min":[0,0],"type":"VEC2"},{"bufferView":21,"componentType":5126,"count":1764,"max":[0.3700000047683716,0.23999999463558197,0.006000000052154064],"min":[-0.3700000047683716,-0.23999999463558197,-0.006000000052154064],"type":"VEC3"},{"bufferView":22,"componentType":5126,"count":1764,"max":[1,1,1],"min":[-1,-1,-1],"type":"VEC3"},{"bufferView":23,"componentType":5126,"count":1764,"max":[1,1],"min":[0,0],"type":"VEC2"},{"bufferView":24,"componentType":5126,"count":1764,"max":[0.3400000035762787,0.20999999344348907,0.00800000037997961],"min":[-0.3400000035762787,-0.20999999344348907,-0.00800000037997961],"type":"VEC3"},{"bufferView":25,"componentType":5126,"count":1764,"max":[1,1,1],"min":[-1,-1,-1],"type":"VEC3"},{"bufferView":26,"componentType":5126,"count":1764,"max":[1,1],"min":[0,0],"type":"VEC2"},{"bufferView":27,"componentType":5126,"count":1764,"max":[0.20000000298023224,0.3100000023841858,0.007000000216066837],"min":[-0.20000000298023224,-0.3100000023841858,-0.007000000216066837],"type":"VEC3"},{"bufferView":28,"componentType":5126,"count":1764,"max":[1,1,1],"min":[-1,-1,-1],"type":"VEC3"},{"bufferView":29,"componentType":5126,"count":1764,"max":[1,1],"min":[0,0],"type":"VEC2"},{"bufferView":30,"componentType":5126,"count":1764,"max":[0.23999999463558197,0.019999999552965164,0.014999999664723873],"min":[-0.23999999463558197,-0.019999999552965164,-0.014999999664723873],"type":"VEC3"},{"bufferView":31,"componentType":5126,"count":1764,"max":[1,1,1],"min":[-1,-1,-1],"type":"VEC3"},{"bufferView":32,"componentType":5126,"count":1764,"max":[1,1],"min":[0,0],"type":"VEC2"},{"bufferView":33,"componentType":5126,"count":1764,"max":[0.23999999463558197,0.019999999552965164,0.014999999664723873],"min":[-0.23999999463558197,-0.019999999552965164,-0.014999999664723873],"type":"VEC3"},{"bufferView":34,"componentType":5126,"count":1764,"max":[1,1,1],"min":[-1,-1,-1],"type":"VEC3"},{"bufferView":35,"componentType":5126,"count":1764,"max":[1,1],"min":[0,0],"type":"VEC2"},{"bufferView":36,"componentType":5126,"count":1764,"max":[0.019999999552965164,0.33000001311302185,0.014999999664723873],"min":[-0.019999999552965164,-0.33000001311302185,-0.014999999664723873],"type":"VEC3"},{"bufferView":37,"componentType":5126,"count":1764,"max":[1,1,1],"min":[-1,-1,-1],"type":"VEC3"},{"bufferView":38,"componentType":5126,"count":1764,"max":[1,1],"min":[0,0],"type":"VEC2"},{"bufferView":39,"componentType":5126,"count":1764,"max":[0.019999999552965164,0.33000001311302185,0.014999999664723873],"min":[-0.019999999552965164,-0.33000001311302185,-0.014999999664723873],"type":"VEC3"},{"bufferView":40,"componentType":5126,"count":1764,"max":[1,1,1],"min":[-1,-1,-1],"type":"VEC3"},{"bufferView":41,"componentType":5126,"count":1764,"max":[1,1],"min":[0,0],"type":"VEC2"},{"bufferView":42,"componentType":5126,"count":1764,"max":[0.17000000178813934,0.27000001072883606,0.004999999888241291],"min":[-0.17000000178813934,-0.27000001072883606,-0.004999999888241291],"type":"VEC3"},{"bufferView":43,"componentType":5126,"count":1764,"max":[1,1,1],"min":[-1,-1,-1],"type":"VEC3"},{"bufferView":44,"componentType":5126,"count":1764,"max":[1,1],"min":[0,0],"type":"VEC2"},{"bufferView":45,"componentType":5126,"count":1764,"max":[0.38999998569488525,0.12999999523162842,0.006000000052154064],"min":[-0.38999998569488525,-0.12999999523162842,-0.006000000052154064],"type":"VEC3"},{"bufferView":46,"componentType":5126,"count":1764,"max":[1,1,1],"min":[-1,-1,-1],"type":"VEC3"},{"bufferView":47,"componentType":5126,"count":1764,"max":[1,1],"min":[0,0],"type":"VEC2"},{"bufferView":48,"componentType":5126,"count":1764,"max":[0.017500000074505806,0.10999999940395355,0.006000000052154064],"min":[-0.017500000074505806,-0.10999999940395355,-0.006000000052154064],"type":"VEC3"},{"bufferView":49,"componentType":5126,"count":1764,"max":[1,1,1],"min":[-1,-1,-1],"type":"VEC3"},{"bufferView":50,"componentType":5126,"count":1764,"max":[1,1],"min":[0,0],"type":"VEC2"},{"bufferView":51,"componentType":5126,"count":148,"max":[0.02500000037252903,0.14000000059604645,0.02500000037252903],"min":[-0.02500000037252903,-0.14000000059604645,-0.02500000037252903],"type":"VEC3"},{"bufferView":52,"componentType":5126,"count":148,"max":[1,1,1],"min":[-1,-1,-1],"type":"VEC3"},{"bufferView":53,"componentType":5126,"count":148,"max":[1,1],"min":[0,0],"type":"VEC2"},{"bufferView":54,"componentType":5123,"count":288,"max":[147],"min":[0],"type":"SCALAR"},{"bufferView":55,"componentType":5126,"count":1764,"max":[0.019999999552965164,0.10999999940395355,0.008999999612569809],"min":[-0.019999999552965164,-0.10999999940395355,-0.008999999612569809],"type":"VEC3"},{"bufferView":56,"componentType":5126,"count":1764,"max":[1,1,1],"min":[-1,-1,-1],"type":"VEC3"},{"bufferView":57,"componentType":5126,"count":1764,"max":[1,1],"min":[0,0],"type":"VEC2"},{"bufferView":58,"componentType":5126,"count":1764,"max":[0.019999999552965164,0.10999999940395355,0.008999999612569809],"min":[-0.019999999552965164,-0.10999999940395355,-0.008999999612569809],"type":"VEC3"},{"bufferView":59,"componentType":5126,"count":1764,"max":[1,1,1],"min":[-1,-1,-1],"type":"VEC3"},{"bufferView":60,"componentType":5126,"count":1764,"max":[1,1],"min":[0,0],"type":"VEC2"},{"bufferView":61,"componentType":5126,"count":1764,"max":[0.019999999552965164,0.10999999940395355,0.008999999612569809],"min":[-0.019999999552965164,-0.10999999940395355,-0.008999999612569809],"type":"VEC3"},{"bufferView":62,"componentType":5126,"count":1764,"max":[1,1,1],"min":[-1,-1,-1],"type":"VEC3"},{"bufferView":63,"componentType":5126,"count":1764,"max":[1,1],"min":[0,0],"type":"VEC2"}],"materials":[{"pbrMetallicRoughness":{"baseColorFactor":[0.13013647668074665,0.13563332964548108,0.11953842797895521,1],"metallicFactor":0.2,"roughnessFactor":0.58},"name":"aged-anodized-frame"},{"pbrMetallicRoughness":{"baseColorFactor":[0.55201140150344,0.4019777798219466,0.22696587349938613,1],"metallicFactor":0.02,"roughnessFactor":0.62},"name":"laminated-wood-door"},{"pbrMetallicRoughness":{"baseColorFactor":[0.0015176349176470587,0.0018211619011764706,0.0021246888847058823,1],"metallicFactor":0.01,"roughnessFactor":0.9},"name":"recess-shadow"},{"pbrMetallicRoughness":{"baseColorFactor":[0.005181516700061659,0.010329823026364548,0.012286488353353374,0.74],"metallicFactor":0.04,"roughnessFactor":0.2},"alphaMode":"BLEND","name":"dark-wired-glass"},{"pbrMetallicRoughness":{"baseColorFactor":[0.5583403896257968,0.3515325994898463,0.10702310296918527,1],"metallicFactor":0.58,"roughnessFactor":0.38},"name":"worn-brass-hardware"}],"meshes":[{"primitives":[{"mode":4,"attributes":{"POSITION":0,"NORMAL":1,"TEXCOORD_0":2},"material":0}]},{"primitives":[{"mode":4,"attributes":{"POSITION":3,"NORMAL":4,"TEXCOORD_0":5},"material":0}]},{"primitives":[{"mode":4,"attributes":{"POSITION":6,"NORMAL":7,"TEXCOORD_0":8},"material":0}]},{"primitives":[{"mode":4,"attributes":{"POSITION":9,"NORMAL":10,"TEXCOORD_0":11},"material":0}]},{"primitives":[{"mode":4,"attributes":{"POSITION":12,"NORMAL":13,"TEXCOORD_0":14},"material":1}]},{"primitives":[{"mode":4,"attributes":{"POSITION":15,"NORMAL":16,"TEXCOORD_0":17},"material":2}]},{"primitives":[{"mode":4,"attributes":{"POSITION":18,"NORMAL":19,"TEXCOORD_0":20},"material":1}]},{"primitives":[{"mode":4,"attributes":{"POSITION":21,"NORMAL":22,"TEXCOORD_0":23},"material":2}]},{"primitives":[{"mode":4,"attributes":{"POSITION":24,"NORMAL":25,"TEXCOORD_0":26},"material":1}]},{"primitives":[{"mode":4,"attributes":{"POSITION":27,"NORMAL":28,"TEXCOORD_0":29},"material":2}]},{"primitives":[{"mode":4,"attributes":{"POSITION":30,"NORMAL":31,"TEXCOORD_0":32},"material":0}]},{"primitives":[{"mode":4,"attributes":{"POSITION":33,"NORMAL":34,"TEXCOORD_0":35},"material":0}]},{"primitives":[{"mode":4,"attributes":{"POSITION":36,"NORMAL":37,"TEXCOORD_0":38},"material":0}]},{"primitives":[{"mode":4,"attributes":{"POSITION":39,"NORMAL":40,"TEXCOORD_0":41},"material":0}]},{"primitives":[{"mode":4,"attributes":{"POSITION":42,"NORMAL":43,"TEXCOORD_0":44},"material":3}]},{"primitives":[{"mode":4,"attributes":{"POSITION":45,"NORMAL":46,"TEXCOORD_0":47},"material":4}]},{"primitives":[{"mode":4,"attributes":{"POSITION":48,"NORMAL":49,"TEXCOORD_0":50},"material":4}]},{"primitives":[{"mode":4,"attributes":{"POSITION":51,"NORMAL":52,"TEXCOORD_0":53},"indices":54,"material":4}]},{"primitives":[{"mode":4,"attributes":{"POSITION":55,"NORMAL":56,"TEXCOORD_0":57},"material":4}]},{"primitives":[{"mode":4,"attributes":{"POSITION":58,"NORMAL":59,"TEXCOORD_0":60},"material":4}]},{"primitives":[{"mode":4,"attributes":{"POSITION":61,"NORMAL":62,"TEXCOORD_0":63},"material":4}]}]}
