{"asset":{"version":"2.0","generator":"THREE.GLTFExporter r181"},"scenes":[{"name":"locker-door-asset","nodes":[0]}],"scene":0,"nodes":[{"name":"locker-door-root","children":[1,2,3,4,5,6,7,8,9,10,11,12,13,14]},{"translation":[0,0.93,0],"name":"anomaly-door-panel","mesh":0},{"translation":[-0.03,0.9,0],"name":"anomaly-door-recess","mesh":1},{"translation":[-0.035,1.5,0.02],"name":"anomaly-door-number-plate","mesh":2},{"translation":[-0.055,1.04,-0.22],"name":"anomaly-door-handle","mesh":3},{"translation":[-0.058,1.28,0.03],"name":"anomaly-door-top-vent-0","mesh":4},{"translation":[-0.058,0.52,0.03],"name":"anomaly-door-bottom-vent-0","mesh":5},{"translation":[-0.058,1.325,0.03],"name":"anomaly-door-top-vent-1","mesh":6},{"translation":[-0.058,0.5650000000000001,0.03],"name":"anomaly-door-bottom-vent-1","mesh":7},{"translation":[-0.058,1.37,0.03],"name":"anomaly-door-top-vent-2","mesh":8},{"translation":[-0.058,0.61,0.03],"name":"anomaly-door-bottom-vent-2","mesh":9},{"translation":[-0.058,1.415,0.03],"name":"anomaly-door-top-vent-3","mesh":10},{"translation":[-0.058,0.655,0.03],"name":"anomaly-door-bottom-vent-3","mesh":11},{"translation":[-0.058,1.46,0.03],"name":"anomaly-door-top-vent-4","mesh":12},{"translation":[-0.058,0.7,0.03],"name":"anomaly-door-bottom-vent-4","mesh":13}],"bufferViews":[{"buffer":0,"byteOffset":0,"byteLength":21168,"target":34962,"byteStride":12},{"buffer":0,"byteOffset":21168,"byteLength":21168,"target":34962,"byteStride":12},{"buffer":0,"byteOffset":42336,"byteLength":14112,"target":34962,"byteStride":8},{"buffer":0,"byteOffset":56448,"byteLength":21168,"target":34962,"byteStride":12},{"buffer":0,"byteOffset":77616,"byteLength":21168,"target":34962,"byteStride":12},{"buffer":0,"byteOffset":98784,"byteLength":14112,"target":34962,"byteStride":8},{"buffer":0,"byteOffset":112896,"byteLength":21168,"target":34962,"byteStride":12},{"buffer":0,"byteOffset":134064,"byteLength":21168,"target":34962,"byteStride":12},{"buffer":0,"byteOffset":155232,"byteLength":14112,"target":34962,"byteStride":8},{"buffer":0,"byteOffset":169344,"byteLength":21168,"target":34962,"byteStride":12},{"buffer":0,"byteOffset":190512,"byteLength":21168,"target":34962,"byteStride":12},{"buffer":0,"byteOffset":211680,"byteLength":14112,"target":34962,"byteStride":8},{"buffer":0,"byteOffset":225792,"byteLength":21168,"target":34962,"byteStride":12},{"buffer":0,"byteOffset":246960,"byteLength":21168,"target":34962,"byteStride":12},{"buffer":0,"byteOffset":268128,"byteLength":14112,"target":34962,"byteStride":8},{"buffer":0,"byteOffset":282240,"byteLength":21168,"target":34962,"byteStride":12},{"buffer":0,"byteOffset":303408,"byteLength":21168,"target":34962,"byteStride":12},{"buffer":0,"byteOffset":324576,"byteLength":14112,"target":34962,"byteStride":8},{"buffer":0,"byteOffset":338688,"byteLength":21168,"target":34962,"byteStride":12},{"buffer":0,"byteOffset":359856,"byteLength":21168,"target":34962,"byteStride":12},{"buffer":0,"byteOffset":381024,"byteLength":14112,"target":34962,"byteStride":8},{"buffer":0,"byteOffset":395136,"byteLength":21168,"target":34962,"byteStride":12},{"buffer":0,"byteOffset":416304,"byteLength":21168,"target":34962,"byteStride":12},{"buffer":0,"byteOffset":437472,"byteLength":14112,"target":34962,"byteStride":8},{"buffer":0,"byteOffset":451584,"byteLength":21168,"target":34962,"byteStride":12},{"buffer":0,"byteOffset":472752,"byteLength":21168,"target":34962,"byteStride":12},{"buffer":0,"byteOffset":493920,"byteLength":14112,"target":34962,"byteStride":8},{"buffer":0,"byteOffset":508032,"byteLength":21168,"target":34962,"byteStride":12},{"buffer":0,"byteOffset":529200,"byteLength":21168,"target":34962,"byteStride":12},{"buffer":0,"byteOffset":550368,"byteLength":14112,"target":34962,"byteStride":8},{"buffer":0,"byteOffset":564480,"byteLength":21168,"target":34962,"byteStride":12},{"buffer":0,"byteOffset":585648,"byteLength":21168,"target":34962,"byteStride":12},{"buffer":0,"byteOffset":606816,"byteLength":14112,"target":34962,"byteStride":8},{"buffer":0,"byteOffset":620928,"byteLength":21168,"target":34962,"byteStride":12},{"buffer":0,"byteOffset":642096,"byteLength":21168,"target":34962,"byteStride":12},{"buffer":0,"byteOffset":663264,"byteLength":14112,"target":34962,"byteStride":8},{"buffer":0,"byteOffset":677376,"byteLength":21168,"target":34962,"byteStride":12},{"buffer":0,"byteOffset":698544,"byteLength":21168,"target":34962,"byteStride":12},{"buffer":0,"byteOffset":719712,"byteLength":14112,"target":34962,"byteStride":8},{"buffer":0,"byteOffset":733824,"byteLength":21168,"target":34962,"byteStride":12},{"buffer":0,"byteOffset":754992,"byteLength":21168,"target":34962,"byteStride":12},{"buffer":0,"byteOffset":776160,"byteLength":14112,"target":34962,"byteStride":8}],"buffers":[{"byteLength":790272,"uri":"data:application/octet-stream;base64,"}],"accessors":[{"bufferView":0,"componentType":5126,"count":1764,"max":[0.02500000037252903,0.7400000095367432,0.3100000023841858],"min":[-0.02500000037252903,-0.7400000095367432,-0.3100000023841858],"type":"VEC3"},{"bufferView":1,"componentType":5126,"count":1764,"max":[1,1,1],"min":[-1,-1,-1],"type":"VEC3"},{"bufferView":2,"componentType":5126,"count":1764,"max":[1,1],"min":[0,0],"type":"VEC2"},{"bufferView":3,"componentType":5126,"count":1764,"max":[0.006000000052154064,0.36000001430511475,0.23999999463558197],"min":[-0.006000000052154064,-0.36000001430511475,-0.23999999463558197],"type":"VEC3"},{"bufferView":4,"componentType":5126,"count":1764,"max":[1,1,1],"min":[-1,-1,-1],"type":"VEC3"},{"bufferView":5,"componentType":5126,"count":1764,"max":[1,1],"min":[0,0],"type":"VEC2"},{"bufferView":6,"componentType":5126,"count":1764,"max":[0.006000000052154064,0.07000000029802322,0.10999999940395355],"min":[-0.006000000052154064,-0.07000000029802322,-0.10999999940395355],"type":"VEC3"},{"bufferView":7,"componentType":5126,"count":1764,"max":[1,1,1],"min":[-1,-1,-1],"type":"VEC3"},{"bufferView":8,"componentType":5126,"count":1764,"max":[1,1],"min":[0,0],"type":"VEC2"},{"bufferView":9,"componentType":5126,"count":1764,"max":[0.017500000074505806,0.10000000149011612,0.017500000074505806],"min":[-0.017500000074505806,-0.10000000149011612,-0.017500000074505806],"type":"VEC3"},{"bufferView":10,"componentType":5126,"count":1764,"max":[1,1,1],"min":[-1,-1,-1],"type":"VEC3"},{"bufferView":11,"componentType":5126,"count":1764,"max":[1,1],"min":[0,0],"type":"VEC2"},{"bufferView":12,"componentType":5126,"count":1764,"max":[0.006000000052154064,0.006000000052154064,0.14000000059604645],"min":[-0.006000000052154064,-0.006000000052154064,-0.14000000059604645],"type":"VEC3"},{"bufferView":13,"componentType":5126,"count":1764,"max":[1,1,1],"min":[-1,-1,-1],"type":"VEC3"},{"bufferView":14,"componentType":5126,"count":1764,"max":[1,1],"min":[0,0],"type":"VEC2"},{"bufferView":15,"componentType":5126,"count":1764,"max":[0.006000000052154064,0.006000000052154064,0.14000000059604645],"min":[-0.006000000052154064,-0.006000000052154064,-0.14000000059604645],"type":"VEC3"},{"bufferView":16,"componentType":5126,"count":1764,"max":[1,1,1],"min":[-1,-1,-1],"type":"VEC3"},{"bufferView":17,"componentType":5126,"count":1764,"max":[1,1],"min":[0,0],"type":"VEC2"},{"bufferView":18,"componentType":5126,"count":1764,"max":[0.006000000052154064,0.006000000052154064,0.14000000059604645],"min":[-0.006000000052154064,-0.006000000052154064,-0.14000000059604645],"type":"VEC3"},{"bufferView":19,"componentType":5126,"count":1764,"max":[1,1,1],"min":[-1,-1,-1],"type":"VEC3"},{"bufferView":20,"componentType":5126,"count":1764,"max":[1,1],"min":[0,0],"type":"VEC2"},{"bufferView":21,"componentType":5126,"count":1764,"max":[0.006000000052154064,0.006000000052154064,0.14000000059604645],"min":[-0.006000000052154064,-0.006000000052154064,-0.14000000059604645],"type":"VEC3"},{"bufferView":22,"componentType":5126,"count":1764,"max":[1,1,1],"min":[-1,-1,-1],"type":"VEC3"},{"bufferView":23,"componentType":5126,"count":1764,"max":[1,1],"min":[0,0],"type":"VEC2"},{"bufferView":24,"componentType":5126,"count":1764,"max":[0.006000000052154064,0.006000000052154064,0.14000000059604645],"min":[-0.006000000052154064,-0.006000000052154064,-0.14000000059604645],"type":"VEC3"},{"bufferView":25,"componentType":5126,"count":1764,"max":[1,1,1],"min":[-1,-1,-1],"type":"VEC3"},{"bufferView":26,"componentType":5126,"count":1764,"max":[1,1],"min":[0,0],"type":"VEC2"},{"bufferView":27,"componentType":5126,"count":1764,"max":[0.006000000052154064,0.006000000052154064,0.14000000059604645],"min":[-0.006000000052154064,-0.006000000052154064,-0.14000000059604645],"type":"VEC3"},{"bufferView":28,"componentType":5126,"count":1764,"max":[1,1,1],"min":[-1,-1,-1],"type":"VEC3"},{"bufferView":29,"componentType":5126,"count":1764,"max":[1,1],"min":[0,0],"type":"VEC2"},{"bufferView":30,"componentType":5126,"count":1764,"max":[0.006000000052154064,0.006000000052154064,0.14000000059604645],"min":[-0.006000000052154064,-0.006000000052154064,-0.14000000059604645],"type":"VEC3"},{"bufferView":31,"componentType":5126,"count":1764,"max":[1,1,1],"min":[-1,-1,-1],"type":"VEC3"},{"bufferView":32,"componentType":5126,"count":1764,"max":[1,1],"min":[0,0],"type":"VEC2"},{"bufferView":33,"componentType":5126,"count":1764,"max":[0.006000000052154064,0.006000000052154064,0.14000000059604645],"min":[-0.006000000052154064,-0.006000000052154064,-0.14000000059604645],"type":"VEC3"},{"bufferView":34,"componentType":5126,"count":1764,"max":[1,1,1],"min":[-1,-1,-1],"type":"VEC3"},{"bufferView":35,"componentType":5126,"count":1764,"max":[1,1],"min":[0,0],"type":"VEC2"},{"bufferView":36,"componentType":5126,"count":1764,"max":[0.006000000052154064,0.006000000052154064,0.14000000059604645],"min":[-0.006000000052154064,-0.006000000052154064,-0.14000000059604645],"type":"VEC3"},{"bufferView":37,"componentType":5126,"count":1764,"max":[1,1,1],"min":[-1,-1,-1],"type":"VEC3"},{"bufferView":38,"componentType":5126,"count":1764,"max":[1,1],"min":[0,0],"type":"VEC2"},{"bufferView":39,"componentType":5126,"count":1764,"max":[0.006000000052154064,0.006000000052154064,0.14000000059604645],"min":[-0.006000000052154064,-0.006000000052154064,-0.14000000059604645],"type":"VEC3"},{"bufferView":40,"componentType":5126,"count":1764,"max":[1,1,1],"min":[-1,-1,-1],"type":"VEC3"},{"bufferView":41,"componentType":5126,"count":1764,"max":[1,1],"min":[0,0],"type":"VEC2"}],"materials":[{"pbrMetallicRoughness":{"baseColorFactor":[0.013702083043526807,0.11443537381770343,0.3231432091022285,1],"metallicFactor":0.35,"roughnessFactor":0.46},"name":"blue-painted-anomaly-door"},{"pbrMetallicRoughness":{"baseColorFactor":[0.0021246888847058823,0.005605391621829107,0.010329823026364548,1],"metallicFactor":0.04,"roughnessFactor":0.82},"name":"locker-vent-shadow"},{"pbrMetallicRoughness":{"baseColorFactor":[0.5840784178830671,0.5775804404214573,0.508881320845802,1],"metallicFactor":0.5,"roughnessFactor":0.4},"name":"brushed-locker-hardware"}],"meshes":[{"primitives":[{"mode":4,"attributes":{"POSITION":0,"NORMAL":1,"TEXCOORD_0":2},"material":0}]},{"primitives":[{"mode":4,"attributes":{"POSITION":3,"NORMAL":4,"TEXCOORD_0":5},"material":1}]},{"primitives":[{"mode":4,"attributes":{"POSITION":6,"NORMAL":7,"TEXCOORD_0":8},"material":2}]},{"primitives":[{"mode":4,"attributes":{"POSITION":9,"NORMAL":10,"TEXCOORD_0":11},"material":2}]},{"primitives":[{"mode":4,"attributes":{"POSITION":12,"NORMAL":13,"TEXCOORD_0":14},"material":1}]},{"primitives":[{"mode":4,"attributes":{"POSITION":15,"NORMAL":16,"TEXCOORD_0":17},"material":1}]},{"primitives":[{"mode":4,"attributes":{"POSITION":18,"NORMAL":19,"TEXCOORD_0":20},"material":1}]},{"primitives":[{"mode":4,"attributes":{"POSITION":21,"NORMAL":22,"TEXCOORD_0":23},"material":1}]},{"primitives":[{"mode":4,"attributes":{"POSITION":24,"NORMAL":25,"TEXCOORD_0":26},"material":1}]},{"primitives":[{"mode":4,"attributes":{"POSITION":27,"NORMAL":28,"TEXCOORD_0":29},"material":1}]},{"primitives":[{"mode":4,"attributes":{"POSITION":30,"NORMAL":31,"TEXCOORD_0":32},"material":1}]},{"primitives":[{"mode":4,"attributes":{"POSITION":33,"NORMAL":34,"TEXCOORD_0":35},"material":1}]},{"primitives":[{"mode":4,"attributes":{"POSITION":36,"NORMAL":37,"TEXCOORD_0":38},"material":1}]},{"primitives":[{"mode":4,"attributes":{"POSITION":39,"NORMAL":40,"TEXCOORD_0":41},"material":1}]}]}
