{"asset":{"version":"2.0","generator":"THREE.GLTFExporter r181"},"scenes":[{"name":"wall-clock-face-asset","nodes":[0]}],"scene":0,"nodes":[{"name":"wall-clock-face-root","children":[1,2,3,4,5,6,7,8,9,10,11,12,13,14]},{"rotation":[0.7071067811865475,0,0,0.7071067811865476],"name":"clock-face-disc","mesh":0},{"translation":[0,0,0.025],"name":"clock-rim","mesh":1},{"translation":[0,0.27,0.05],"name":"clock-tick-0","mesh":2},{"rotation":[0,0,-0.25881904510252074,0.9659258262890683],"translation":[0.13499999999999998,0.23382685902179848,0.05],"name":"clock-tick-1","mesh":3},{"rotation":[0,0,-0.49999999999999994,0.8660254037844387],"translation":[0.23382685902179845,0.13500000000000004,0.05],"name":"clock-tick-2","mesh":4},{"rotation":[0,0,-0.7071067811865475,0.7071067811865476],"translation":[0.27,1.653273178848927e-17,0.05],"name":"clock-tick-3","mesh":5},{"rotation":[0,0,-0.8660254037844386,0.5000000000000001],"translation":[0.23382685902179848,-0.13499999999999995,0.05],"name":"clock-tick-4","mesh":6},{"rotation":[0,0,-0.9659258262890683,0.25881904510252074],"translation":[0.13499999999999998,-0.23382685902179848,0.05],"name":"clock-tick-5","mesh":7},{"rotation":[0,0,-1,6.123233995736766e-17],"translation":[3.306546357697854e-17,-0.27,0.05],"name":"clock-tick-6","mesh":8},{"rotation":[0,0,-0.9659258262890683,-0.25881904510252085],"translation":[-0.13500000000000004,-0.23382685902179845,0.05],"name":"clock-tick-7","mesh":9},{"rotation":[0,0,-0.8660254037844387,-0.4999999999999998],"translation":[-0.2338268590217984,-0.13500000000000012,0.05],"name":"clock-tick-8","mesh":10},{"rotation":[0,0,-0.7071067811865476,-0.7071067811865475],"translation":[-0.27,-4.9598195365467806e-17,0.05],"name":"clock-tick-9","mesh":11},{"rotation":[0,0,-0.49999999999999994,-0.8660254037844387],"translation":[-0.23382685902179845,0.13500000000000004,0.05],"name":"clock-tick-10","mesh":12},{"rotation":[0,0,-0.258819045102521,-0.9659258262890682],"translation":[-0.13500000000000012,0.23382685902179837,0.05],"name":"clock-tick-11","mesh":13}],"bufferViews":[{"buffer":0,"byteOffset":0,"byteLength":6960,"target":34962,"byteStride":12},{"buffer":0,"byteOffset":6960,"byteLength":6960,"target":34962,"byteStride":12},{"buffer":0,"byteOffset":13920,"byteLength":4640,"target":34962,"byteStride":8},{"buffer":0,"byteOffset":18560,"byteLength":2304,"target":34963},{"buffer":0,"byteOffset":20864,"byteLength":12804,"target":34962,"byteStride":12},{"buffer":0,"byteOffset":33668,"byteLength":12804,"target":34962,"byteStride":12},{"buffer":0,"byteOffset":46472,"byteLength":8536,"target":34962,"byteStride":8},{"buffer":0,"byteOffset":55008,"byteLength":11520,"target":34963},{"buffer":0,"byteOffset":66528,"byteLength":10800,"target":34962,"byteStride":12},{"buffer":0,"byteOffset":77328,"byteLength":10800,"target":34962,"byteStride":12},{"buffer":0,"byteOffset":88128,"byteLength":7200,"target":34962,"byteStride":8},{"buffer":0,"byteOffset":95328,"byteLength":10800,"target":34962,"byteStride":12},{"buffer":0,"byteOffset":106128,"byteLength":10800,"target":34962,"byteStride":12},{"buffer":0,"byteOffset":116928,"byteLength":7200,"target":34962,"byteStride":8},{"buffer":0,"byteOffset":124128,"byteLength":10800,"target":34962,"byteStride":12},{"buffer":0,"byteOffset":134928,"byteLength":10800,"target":34962,"byteStride":12},{"buffer":0,"byteOffset":145728,"byteLength":7200,"target":34962,"byteStride":8},{"buffer":0,"byteOffset":152928,"byteLength":10800,"target":34962,"byteStride":12},{"buffer":0,"byteOffset":163728,"byteLength":10800,"target":34962,"byteStride":12},{"buffer":0,"byteOffset":174528,"byteLength":7200,"target":34962,"byteStride":8},{"buffer":0,"byteOffset":181728,"byteLength":10800,"target":34962,"byteStride":12},{"buffer":0,"byteOffset":192528,"byteLength":10800,"target":34962,"byteStride":12},{"buffer":0,"byteOffset":203328,"byteLength":7200,"target":34962,"byteStride":8},{"buffer":0,"byteOffset":210528,"byteLength":10800,"target":34962,"byteStride":12},{"buffer":0,"byteOffset":221328,"byteLength":10800,"target":34962,"byteStride":12},{"buffer":0,"byteOffset":232128,"byteLength":7200,"target":34962,"byteStride":8},{"buffer":0,"byteOffset":239328,"byteLength":10800,"target":34962,"byteStride":12},{"buffer":0,"byteOffset":250128,"byteLength":10800,"target":34962,"byteStride":12},{"buffer":0,"byteOffset":260928,"byteLength":7200,"target":34962,"byteStride":8},{"buffer":0,"byteOffset":268128,"byteLength":10800,"target":34962,"byteStride":12},{"buffer":0,"byteOffset":278928,"byteLength":10800,"target":34962,"byteStride":12},{"buffer":0,"byteOffset":289728,"byteLength":7200,"target":34962,"byteStride":8},{"buffer":0,"byteOffset":296928,"byteLength":10800,"target":34962,"byteStride":12},{"buffer":0,"byteOffset":307728,"byteLength":10800,"target":34962,"byteStride":12},{"buffer":0,"byteOffset":318528,"byteLength":7200,"target":34962,"byteStride":8},{"buffer":0,"byteOffset":325728,"byteLength":10800,"target":34962,"byteStride":12},{"buffer":0,"byteOffset":336528,"byteLength":10800,"target":34962,"byteStride":12},{"buffer":0,"byteOffset":347328,"byteLength":7200,"target":34962,"byteStride":8},{"buffer":0,"byteOffset":354528,"byteLength":10800,"target":34962,"byteStride":12},{"buffer":0,"byteOffset":365328,"byteLength":10800,"target":34962,"byteStride":12},{"buffer":0,"byteOffset":376128,"byteLength":7200,"target":34962,"byteStride":8},{"buffer":0,"byteOffset":383328,"byteLength":10800,"target":34962,"byteStride":12},{"buffer":0,"byteOffset":394128,"byteLength":10800,"target":34962,"byteStride":12},{"buffer":0,"byteOffset":404928,"byteLength":7200,"target":34962,"byteStride":8}],"buffers":[{"byteLength":412128,"uri":"data:application/octet-stream;base64,"}],"accessors":[{"bufferView":0,"componentType":5126,"count":580,"max":[0.3499999940395355,0.017500000074505806,0.3499999940395355],"min":[-0.3499999940395355,-0.017500000074505806,-0.3499999940395355],"type":"VEC3"},{"bufferView":1,"componentType":5126,"count":580,"max":[1,1,1],"min":[-1,-1,-1],"type":"VEC3"},{"bufferView":2,"componentType":5126,"count":580,"max":[1,1],"min":[0,0],"type":"VEC2"},{"bufferView":3,"componentType":5123,"count":1152,"max":[579],"min":[0],"type":"SCALAR"},{"bufferView":4,"componentType":5126,"count":1067,"max":[0.38199999928474426,0.38199999928474426,0.020923243835568428],"min":[-0.38199999928474426,-0.38199999928474426,-0.020923243835568428],"type":"VEC3"},{"bufferView":5,"componentType":5126,"count":1067,"max":[1,1,0.9510565400123596],"min":[-1,-1,-0.9510565400123596],"type":"VEC3"},{"bufferView":6,"componentType":5126,"count":1067,"max":[1,1],"min":[0,0],"type":"VEC2"},{"bufferView":7,"componentType":5123,"count":5760,"max":[1066],"min":[0],"type":"SCALAR"},{"bufferView":8,"componentType":5126,"count":900,"max":[0.010999999940395355,0.03099999949336052,0.006000000052154064],"min":[-0.010999999940395355,-0.03099999949336052,-0.006000000052154064],"type":"VEC3"},{"bufferView":9,"componentType":5126,"count":900,"max":[1,1,1],"min":[-1,-1,-1],"type":"VEC3"},{"bufferView":10,"componentType":5126,"count":900,"max":[1,1],"min":[0,0],"type":"VEC2"},{"bufferView":11,"componentType":5126,"count":900,"max":[0.006000000052154064,0.03099999949336052,0.006000000052154064],"min":[-0.006000000052154064,-0.03099999949336052,-0.006000000052154064],"type":"VEC3"},{"bufferView":12,"componentType":5126,"count":900,"max":[1,1,1],"min":[-1,-1,-1],"type":"VEC3"},{"bufferView":13,"componentType":5126,"count":900,"max":[1,1],"min":[0,0],"type":"VEC2"},{"bufferView":14,"componentType":5126,"count":900,"max":[0.006000000052154064,0.03099999949336052,0.006000000052154064],"min":[-0.006000000052154064,-0.03099999949336052,-0.006000000052154064],"type":"VEC3"},{"bufferView":15,"componentType":5126,"count":900,"max":[1,1,1],"min":[-1,-1,-1],"type":"VEC3"},{"bufferView":16,"componentType":5126,"count":900,"max":[1,1],"min":[0,0],"type":"VEC2"},{"bufferView":17,"componentType":5126,"count":900,"max":[0.010999999940395355,0.03099999949336052,0.006000000052154064],"min":[-0.010999999940395355,-0.03099999949336052,-0.006000000052154064],"type":"VEC3"},{"bufferView":18,"componentType":5126,"count":900,"max":[1,1,1],"min":[-1,-1,-1],"type":"VEC3"},{"bufferView":19,"componentType":5126,"count":900,"max":[1,1],"min":[0,0],"type":"VEC2"},{"bufferView":20,"componentType":5126,"count":900,"max":[0.006000000052154064,0.03099999949336052,0.006000000052154064],"min":[-0.006000000052154064,-0.03099999949336052,-0.006000000052154064],"type":"VEC3"},{"bufferView":21,"componentType":5126,"count":900,"max":[1,1,1],"min":[-1,-1,-1],"type":"VEC3"},{"bufferView":22,"componentType":5126,"count":900,"max":[1,1],"min":[0,0],"type":"VEC2"},{"bufferView":23,"componentType":5126,"count":900,"max":[0.006000000052154064,0.03099999949336052,0.006000000052154064],"min":[-0.006000000052154064,-0.03099999949336052,-0.006000000052154064],"type":"VEC3"},{"bufferView":24,"componentType":5126,"count":900,"max":[1,1,1],"min":[-1,-1,-1],"type":"VEC3"},{"bufferView":25,"componentType":5126,"count":900,"max":[1,1],"min":[0,0],"type":"VEC2"},{"bufferView":26,"componentType":5126,"count":900,"max":[0.010999999940395355,0.03099999949336052,0.006000000052154064],"min":[-0.010999999940395355,-0.03099999949336052,-0.006000000052154064],"type":"VEC3"},{"bufferView":27,"componentType":5126,"count":900,"max":[1,1,1],"min":[-1,-1,-1],"type":"VEC3"},{"bufferView":28,"componentType":5126,"count":900,"max":[1,1],"min":[0,0],"type":"VEC2"},{"bufferView":29,"componentType":5126,"count":900,"max":[0.006000000052154064,0.03099999949336052,0.006000000052154064],"min":[-0.006000000052154064,-0.03099999949336052,-0.006000000052154064],"type":"VEC3"},{"bufferView":30,"componentType":5126,"count":900,"max":[1,1,1],"min":[-1,-1,-1],"type":"VEC3"},{"bufferView":31,"componentType":5126,"count":900,"max":[1,1],"min":[0,0],"type":"VEC2"},{"bufferView":32,"componentType":5126,"count":900,"max":[0.006000000052154064,0.03099999949336052,0.006000000052154064],"min":[-0.006000000052154064,-0.03099999949336052,-0.006000000052154064],"type":"VEC3"},{"bufferView":33,"componentType":5126,"count":900,"max":[1,1,1],"min":[-1,-1,-1],"type":"VEC3"},{"bufferView":34,"componentType":5126,"count":900,"max":[1,1],"min":[0,0],"type":"VEC2"},{"bufferView":35,"componentType":5126,"count":900,"max":[0.010999999940395355,0.03099999949336052,0.006000000052154064],"min":[-0.010999999940395355,-0.03099999949336052,-0.006000000052154064],"type":"VEC3"},{"bufferView":36,"componentType":5126,"count":900,"max":[1,1,1],"min":[-1,-1,-1],"type":"VEC3"},{"bufferView":37,"componentType":5126,"count":900,"max":[1,1],"min":[0,0],"type":"VEC2"},{"bufferView":38,"componentType":5126,"count":900,"max":[0.006000000052154064,0.03099999949336052,0.006000000052154064],"min":[-0.006000000052154064,-0.03099999949336052,-0.006000000052154064],"type":"VEC3"},{"bufferView":39,"componentType":5126,"count":900,"max":[1,1,1],"min":[-1,-1,-1],"type":"VEC3"},{"bufferView":40,"componentType":5126,"count":900,"max":[1,1],"min":[0,0],"type":"VEC2"},{"bufferView":41,"componentType":5126,"count":900,"max":[0.006000000052154064,0.03099999949336052,0.006000000052154064],"min":[-0.006000000052154064,-0.03099999949336052,-0.006000000052154064],"type":"VEC3"},{"bufferView":42,"componentType":5126,"count":900,"max":[1,1,1],"min":[-1,-1,-1],"type":"VEC3"},{"bufferView":43,"componentType":5126,"count":900,"max":[1,1],"min":[0,0],"type":"VEC2"}],"materials":[{"pbrMetallicRoughness":{"baseColorFactor":[0.8148465722120952,0.822785754392438,0.7379104087672317,1],"metallicFactor":0.02,"roughnessFactor":0.76},"name":"aged-clock-face"},{"pbrMetallicRoughness":{"baseColorFactor":[0.014443843592229466,0.02121901037134225,0.019382360952473074,1],"metallicFactor":0.22,"roughnessFactor":0.5},"name":"clock-black-rim"},{"pbrMetallicRoughness":{"baseColorFactor":[0.008568125615105716,0.012286488353353374,0.010960094003125918,1],"metallicFactor":0.02,"roughnessFactor":0.58},"name":"clock-ticks"}],"meshes":[{"primitives":[{"mode":4,"attributes":{"POSITION":0,"NORMAL":1,"TEXCOORD_0":2},"indices":3,"material":0}]},{"primitives":[{"mode":4,"attributes":{"POSITION":4,"NORMAL":5,"TEXCOORD_0":6},"indices":7,"material":1}]},{"primitives":[{"mode":4,"attributes":{"POSITION":8,"NORMAL":9,"TEXCOORD_0":10},"material":2}]},{"primitives":[{"mode":4,"attributes":{"POSITION":11,"NORMAL":12,"TEXCOORD_0":13},"material":2}]},{"primitives":[{"mode":4,"attributes":{"POSITION":14,"NORMAL":15,"TEXCOORD_0":16},"material":2}]},{"primitives":[{"mode":4,"attributes":{"POSITION":17,"NORMAL":18,"TEXCOORD_0":19},"material":2}]},{"primitives":[{"mode":4,"attributes":{"POSITION":20,"NORMAL":21,"TEXCOORD_0":22},"material":2}]},{"primitives":[{"mode":4,"attributes":{"POSITION":23,"NORMAL":24,"TEXCOORD_0":25},"material":2}]},{"primitives":[{"mode":4,"attributes":{"POSITION":26,"NORMAL":27,"TEXCOORD_0":28},"material":2}]},{"primitives":[{"mode":4,"attributes":{"POSITION":29,"NORMAL":30,"TEXCOORD_0":31},"material":2}]},{"primitives":[{"mode":4,"attributes":{"POSITION":32,"NORMAL":33,"TEXCOORD_0":34},"material":2}]},{"primitives":[{"mode":4,"attributes":{"POSITION":35,"NORMAL":36,"TEXCOORD_0":37},"material":2}]},{"primitives":[{"mode":4,"attributes":{"POSITION":38,"NORMAL":39,"TEXCOORD_0":40},"material":2}]},{"primitives":[{"mode":4,"attributes":{"POSITION":41,"NORMAL":42,"TEXCOORD_0":43},"material":2}]}]}
